<svg width="146" height="23" viewBox="0 0 146 23" fill="none" xmlns="http://www.w3.org/2000/svg">
<path d="M13.5273 19.085V22H2.81934V19.085H13.5273ZM3.84473 0.671875V22H0.167969V0.671875H3.84473ZM32.4092 10.75V11.9219C32.4092 13.5332 32.1992 14.9785 31.7793 16.2578C31.3594 17.5371 30.7588 18.626 29.9775 19.5244C29.2061 20.4229 28.2783 21.1113 27.1943 21.5898C26.1104 22.0586 24.9092 22.293 23.5908 22.293C22.2822 22.293 21.0859 22.0586 20.002 21.5898C18.9277 21.1113 17.9951 20.4229 17.2041 19.5244C16.4131 18.626 15.7979 17.5371 15.3584 16.2578C14.9287 14.9785 14.7139 13.5332 14.7139 11.9219V10.75C14.7139 9.13867 14.9287 7.69824 15.3584 6.42871C15.7881 5.14941 16.3936 4.06055 17.1748 3.16211C17.9658 2.25391 18.8984 1.56543 19.9727 1.09668C21.0566 0.618164 22.2529 0.378906 23.5615 0.378906C24.8799 0.378906 26.0811 0.618164 27.165 1.09668C28.249 1.56543 29.1816 2.25391 29.9629 3.16211C30.7441 4.06055 31.3447 5.14941 31.7646 6.42871C32.1943 7.69824 32.4092 9.13867 32.4092 10.75ZM28.7324 11.9219V10.7207C28.7324 9.5293 28.6152 8.47949 28.3809 7.57129C28.1562 6.65332 27.8193 5.88672 27.3701 5.27148C26.9307 4.64648 26.3887 4.17773 25.7441 3.86523C25.0996 3.54297 24.3721 3.38184 23.5615 3.38184C22.751 3.38184 22.0283 3.54297 21.3936 3.86523C20.7588 4.17773 20.2168 4.64648 19.7676 5.27148C19.3281 5.88672 18.9912 6.65332 18.7568 7.57129C18.5225 8.47949 18.4053 9.5293 18.4053 10.7207V11.9219C18.4053 13.1133 18.5225 14.168 18.7568 15.0859C18.9912 16.0039 19.333 16.7803 19.7822 17.415C20.2412 18.04 20.7881 18.5137 21.4229 18.8359C22.0576 19.1484 22.7803 19.3047 23.5908 19.3047C24.4111 19.3047 25.1387 19.1484 25.7734 18.8359C26.4082 18.5137 26.9453 18.04 27.3848 17.415C27.8242 16.7803 28.1562 16.0039 28.3809 15.0859C28.6152 14.168 28.7324 13.1133 28.7324 11.9219ZM52.4629 11.1016V19.2461C52.1602 19.6465 51.6865 20.0859 51.042 20.5645C50.4072 21.0332 49.5625 21.4385 48.5078 21.7803C47.4531 22.1221 46.1396 22.293 44.5674 22.293C43.2295 22.293 42.0039 22.0684 40.8906 21.6191C39.7773 21.1602 38.8154 20.4912 38.0049 19.6123C37.2041 18.7334 36.584 17.6641 36.1445 16.4043C35.7051 15.1348 35.4854 13.6895 35.4854 12.0684V10.5889C35.4854 8.97754 35.6855 7.54199 36.0859 6.28223C36.4961 5.0127 37.082 3.93848 37.8438 3.05957C38.6055 2.18066 39.5234 1.5166 40.5977 1.06738C41.6816 0.608398 42.9072 0.378906 44.2744 0.378906C46.0225 0.378906 47.4678 0.671875 48.6104 1.25781C49.7627 1.83398 50.6514 2.63477 51.2764 3.66016C51.9014 4.68555 52.2969 5.85742 52.4629 7.17578H48.8594C48.7422 6.43359 48.5127 5.76953 48.1709 5.18359C47.8389 4.59766 47.3604 4.13867 46.7354 3.80664C46.1201 3.46484 45.3193 3.29395 44.333 3.29395C43.4834 3.29395 42.7363 3.45508 42.0918 3.77734C41.4473 4.09961 40.9102 4.57324 40.4805 5.19824C40.0605 5.82324 39.7432 6.58496 39.5283 7.4834C39.3135 8.38184 39.2061 9.40723 39.2061 10.5596V12.0684C39.2061 13.2402 39.3281 14.2803 39.5723 15.1885C39.8262 16.0967 40.1875 16.8633 40.6562 17.4883C41.1348 18.1133 41.7158 18.5869 42.3994 18.9092C43.083 19.2217 43.8545 19.3779 44.7139 19.3779C45.5537 19.3779 46.2422 19.3096 46.7793 19.1729C47.3164 19.0264 47.7412 18.8555 48.0537 18.6602C48.376 18.4551 48.625 18.2598 48.8008 18.0742V13.8408H44.3623V11.1016H52.4629ZM73.542 10.75V11.9219C73.542 13.5332 73.332 14.9785 72.9121 16.2578C72.4922 17.5371 71.8916 18.626 71.1104 19.5244C70.3389 20.4229 69.4111 21.1113 68.3271 21.5898C67.2432 22.0586 66.042 22.293 64.7236 22.293C63.415 22.293 62.2188 22.0586 61.1348 21.5898C60.0605 21.1113 59.1279 20.4229 58.3369 19.5244C57.5459 18.626 56.9307 17.5371 56.4912 16.2578C56.0615 14.9785 55.8467 13.5332 55.8467 11.9219V10.75C55.8467 9.13867 56.0615 7.69824 56.4912 6.42871C56.9209 5.14941 57.5264 4.06055 58.3076 3.16211C59.0986 2.25391 60.0312 1.56543 61.1055 1.09668C62.1895 0.618164 63.3857 0.378906 64.6943 0.378906C66.0127 0.378906 67.2139 0.618164 68.2979 1.09668C69.3818 1.56543 70.3145 2.25391 71.0957 3.16211C71.877 4.06055 72.4775 5.14941 72.8975 6.42871C73.3271 7.69824 73.542 9.13867 73.542 10.75ZM69.8652 11.9219V10.7207C69.8652 9.5293 69.748 8.47949 69.5137 7.57129C69.2891 6.65332 68.9521 5.88672 68.5029 5.27148C68.0635 4.64648 67.5215 4.17773 66.877 3.86523C66.2324 3.54297 65.5049 3.38184 64.6943 3.38184C63.8838 3.38184 63.1611 3.54297 62.5264 3.86523C61.8916 4.17773 61.3496 4.64648 60.9004 5.27148C60.4609 5.88672 60.124 6.65332 59.8896 7.57129C59.6553 8.47949 59.5381 9.5293 59.5381 10.7207V11.9219C59.5381 13.1133 59.6553 14.168 59.8896 15.0859C60.124 16.0039 60.4658 16.7803 60.915 17.415C61.374 18.04 61.9209 18.5137 62.5557 18.8359C63.1904 19.1484 63.9131 19.3047 64.7236 19.3047C65.5439 19.3047 66.2715 19.1484 66.9062 18.8359C67.541 18.5137 68.0781 18.04 68.5176 17.415C68.957 16.7803 69.2891 16.0039 69.5137 15.0859C69.748 14.168 69.8652 13.1133 69.8652 11.9219Z" fill="#FFC222"/>
<path d="M84.4111 0.671875V22H83.6201V0.671875H84.4111ZM92.1748 0.671875V1.46289H75.8564V0.671875H92.1748ZM94.7529 0.671875L102.136 13.1816L109.606 0.671875H110.573L102.531 13.8994V22H101.74V13.8994L93.6982 0.671875H94.7529ZM120.739 12.9912H114.265V12.2002H120.739C122.175 12.2002 123.342 11.9658 124.24 11.4971C125.139 11.0186 125.793 10.3789 126.203 9.57812C126.623 8.77734 126.833 7.89355 126.833 6.92676C126.833 5.9209 126.623 5.00781 126.203 4.1875C125.793 3.35742 125.139 2.69824 124.24 2.20996C123.342 1.71191 122.175 1.46289 120.739 1.46289H114.865V22H114.074V0.671875H120.739C122.253 0.671875 123.518 0.930664 124.533 1.44824C125.559 1.96582 126.33 2.69336 126.848 3.63086C127.365 4.55859 127.624 5.64746 127.624 6.89746C127.624 8.14746 127.365 9.23145 126.848 10.1494C126.34 11.0576 125.573 11.7607 124.548 12.2588C123.532 12.7471 122.263 12.9912 120.739 12.9912ZM145.07 21.209V22H132.37V21.209H145.07ZM132.883 0.671875V22H132.092V0.671875H132.883ZM143.576 10.6328V11.4238H132.37V10.6328H143.576ZM145.07 0.671875V1.46289H132.37V0.671875H145.07Z" fill="#212020"/>
</svg>
